<svg style="width:calc(106px*4); height:calc(15px*4)" width="106" height="15" viewBox="0 0 106 15"
  fill="none" xmlns="http://www.w3.org/2000/svg">
  <path
    d="M4.65785 0.722892C4.85731 0.722892 5.019 0.561067 5.019 0.361446C5.019 0.161825 4.85731 0 4.65785 0C4.45839 0 4.2967 0.161825 4.2967 0.361446C4.2967 0.561067 4.45839 0.722892 4.65785 0.722892Z"
    fill="url(#paint0_linear_7_2)" />
  <path
    d="M3.75497 0.421687C3.75497 0.621308 3.59328 0.783133 3.39382 0.783133C3.19436 0.783133 3.03267 0.621308 3.03267 0.421687C3.03267 0.222066 3.19436 0.060241 3.39382 0.060241C3.59328 0.060241 3.75497 0.222066 3.75497 0.421687Z"
    fill="url(#paint1_linear_7_2)" />
  <path
    d="M2.55114 0.662651C2.55114 0.862272 2.38944 1.0241 2.18999 1.0241C1.99053 1.0241 1.82884 0.862272 1.82884 0.662651C1.82884 0.46303 1.99053 0.301205 2.18999 0.301205C2.38944 0.301205 2.55114 0.46303 2.55114 0.662651Z"
    fill="url(#paint2_linear_7_2)" />
  <path
    d="M6.28302 0.361446C6.28302 0.561067 6.12133 0.722892 5.92187 0.722892C5.72242 0.722892 5.56072 0.561067 5.56072 0.361446C5.56072 0.161825 5.72242 0 5.92187 0C6.12133 0 6.28302 0.161825 6.28302 0.361446Z"
    fill="url(#paint3_linear_7_2)" />
  <path
    d="M9.29261 0.662651C9.29261 0.862272 9.4543 1.0241 9.65376 1.0241C9.85322 1.0241 10.0149 0.862272 10.0149 0.662651C10.0149 0.46303 9.85322 0.301205 9.65376 0.301205C9.4543 0.301205 9.29261 0.46303 9.29261 0.662651Z"
    fill="url(#paint4_linear_7_2)" />
  <path
    d="M10.4964 1.98795C10.297 1.98795 10.1353 1.82613 10.1353 1.62651C10.1353 1.42689 10.297 1.26506 10.4964 1.26506C10.6959 1.26506 10.8576 1.42689 10.8576 1.62651C10.8576 1.82613 10.6959 1.98795 10.4964 1.98795Z"
    fill="url(#paint5_linear_7_2)" />
  <path
    d="M10.4363 3.07229C10.4363 3.27191 10.5979 3.43374 10.7974 3.43374C10.9969 3.43374 11.1586 3.27191 11.1586 3.07229C11.1586 2.87267 10.9969 2.71084 10.7974 2.71084C10.5979 2.71084 10.4363 2.87267 10.4363 3.07229Z"
    fill="url(#paint6_linear_7_2)" />
  <path
    d="M10.8576 4.81928C10.6581 4.81928 10.4964 4.65745 10.4964 4.45783C10.4964 4.25821 10.6581 4.09639 10.8576 4.09639C11.0571 4.09639 11.2187 4.25821 11.2187 4.45783C11.2187 4.65745 11.0571 4.81928 10.8576 4.81928Z"
    fill="url(#paint7_linear_7_2)" />
  <path
    d="M10.4964 5.84337C10.4964 6.04299 10.6581 6.20482 10.8576 6.20482C11.0571 6.20482 11.2187 6.04299 11.2187 5.84337C11.2187 5.64375 11.0571 5.48193 10.8576 5.48193C10.6581 5.48193 10.4964 5.64375 10.4964 5.84337Z"
    fill="url(#paint8_linear_7_2)" />
  <path
    d="M10.8576 7.59036C10.6581 7.59036 10.4964 7.42854 10.4964 7.22892C10.4964 7.02929 10.6581 6.86747 10.8576 6.86747C11.0571 6.86747 11.2187 7.02929 11.2187 7.22892C11.2187 7.42854 11.0571 7.59036 10.8576 7.59036Z"
    fill="url(#paint9_linear_7_2)" />
  <path
    d="M10.4964 8.55422C10.4964 8.75384 10.6581 8.91566 10.8576 8.91566C11.0571 8.91566 11.2187 8.75384 11.2187 8.55422C11.2187 8.3546 11.0571 8.19277 10.8576 8.19277C10.6581 8.19277 10.4964 8.3546 10.4964 8.55422Z"
    fill="url(#paint10_linear_7_2)" />
  <path
    d="M10.8576 10.241C10.6581 10.241 10.4964 10.0791 10.4964 9.87952C10.4964 9.6799 10.6581 9.51807 10.8576 9.51807C11.0571 9.51807 11.2187 9.6799 11.2187 9.87952C11.2187 10.0791 11.0571 10.241 10.8576 10.241Z"
    fill="url(#paint11_linear_7_2)" />
  <path
    d="M10.4964 11.2048C10.4964 11.4044 10.6581 11.5663 10.8576 11.5663C11.0571 11.5663 11.2187 11.4044 11.2187 11.2048C11.2187 11.0052 11.0571 10.8434 10.8576 10.8434C10.6581 10.8434 10.4964 11.0052 10.4964 11.2048Z"
    fill="url(#paint12_linear_7_2)" />
  <path
    d="M10.7372 13.0723C10.5378 13.0723 10.3761 12.9105 10.3761 12.7108C10.3761 12.5112 10.5378 12.3494 10.7372 12.3494C10.9367 12.3494 11.0984 12.5112 11.0984 12.7108C11.0984 12.9105 10.9367 13.0723 10.7372 13.0723Z"
    fill="url(#paint13_linear_7_2)" />
  <path
    d="M8.08878 0.421687C8.08878 0.621308 8.25047 0.783133 8.44993 0.783133C8.64939 0.783133 8.81108 0.621308 8.81108 0.421687C8.81108 0.222066 8.64939 0.060241 8.44993 0.060241C8.25047 0.060241 8.08878 0.222066 8.08878 0.421687Z"
    fill="url(#paint14_linear_7_2)" />
  <path
    d="M7.1859 0.722892C6.98644 0.722892 6.82475 0.561067 6.82475 0.361446C6.82475 0.161825 6.98644 0 7.1859 0C7.38536 0 7.54705 0.161825 7.54705 0.361446C7.54705 0.561067 7.38536 0.722892 7.1859 0.722892Z"
    fill="url(#paint15_linear_7_2)" />
  <path
    d="M1.3473 1.77711C1.51352 1.77711 1.64826 1.64225 1.64826 1.4759C1.64826 1.30955 1.51352 1.1747 1.3473 1.1747C1.18109 1.1747 1.04634 1.30955 1.04634 1.4759C1.04634 1.64225 1.18109 1.77711 1.3473 1.77711Z"
    fill="url(#paint16_linear_7_2)" />
  <path
    d="M1.35332 2.22892C1.35332 2.39527 1.21858 2.53012 1.05236 2.53012C0.886148 2.53012 0.751404 2.39527 0.751404 2.22892C0.751404 2.06256 0.886148 1.92771 1.05236 1.92771C1.21858 1.92771 1.35332 2.06256 1.35332 2.22892Z"
    fill="url(#paint17_linear_7_2)" />
  <path
    d="M1.28711 3.01205C1.28711 3.1784 1.15237 3.31325 0.986151 3.31325C0.819936 3.31325 0.685192 3.1784 0.685192 3.01205C0.685192 2.8457 0.819936 2.71084 0.986151 2.71084C1.15237 2.71084 1.28711 2.8457 1.28711 3.01205Z"
    fill="url(#paint18_linear_7_2)" />
  <path
    d="M1.22692 3.73494C1.22692 3.90129 1.09217 4.03614 0.925959 4.03614C0.759744 4.03614 0.625 3.90129 0.625 3.73494C0.625 3.56859 0.759744 3.43374 0.925959 3.43374C1.09217 3.43374 1.22692 3.56859 1.22692 3.73494Z"
    fill="url(#paint19_linear_7_2)" />
  <path
    d="M1.22692 4.45783C1.22692 4.62418 1.09217 4.75904 0.925959 4.75904C0.759744 4.75904 0.625 4.62418 0.625 4.45783C0.625 4.29148 0.759744 4.15663 0.925959 4.15663C1.09217 4.15663 1.22692 4.29148 1.22692 4.45783Z"
    fill="url(#paint20_linear_7_2)" />
  <path
    d="M1.22692 5.18072C1.22692 5.34707 1.09217 5.48193 0.925959 5.48193C0.759744 5.48193 0.625 5.34707 0.625 5.18072C0.625 5.01437 0.759744 4.87952 0.925959 4.87952C1.09217 4.87952 1.22692 5.01437 1.22692 5.18072Z"
    fill="url(#paint21_linear_7_2)" />
  <path
    d="M1.22692 5.84337C1.22692 6.00972 1.09217 6.14458 0.925959 6.14458C0.759744 6.14458 0.625 6.00972 0.625 5.84337C0.625 5.67702 0.759744 5.54217 0.925959 5.54217C1.09217 5.54217 1.22692 5.67702 1.22692 5.84337Z"
    fill="url(#paint22_linear_7_2)" />
  <path
    d="M1.22692 6.50602C1.22692 6.67238 1.09217 6.80723 0.925959 6.80723C0.759744 6.80723 0.625 6.67238 0.625 6.50602C0.625 6.33967 0.759744 6.20482 0.925959 6.20482C1.09217 6.20482 1.22692 6.33967 1.22692 6.50602Z"
    fill="url(#paint23_linear_7_2)" />
  <path
    d="M1.22692 7.22892C1.22692 7.39527 1.09217 7.53012 0.925959 7.53012C0.759744 7.53012 0.625 7.39527 0.625 7.22892C0.625 7.06257 0.759744 6.92771 0.925959 6.92771C1.09217 6.92771 1.22692 7.06257 1.22692 7.22892Z"
    fill="url(#paint24_linear_7_2)" />
  <path
    d="M1.22692 7.89157C1.22692 8.05792 1.09217 8.19277 0.925959 8.19277C0.759744 8.19277 0.625 8.05792 0.625 7.89157C0.625 7.72522 0.759744 7.59036 0.925959 7.59036C1.09217 7.59036 1.22692 7.72522 1.22692 7.89157Z"
    fill="url(#paint25_linear_7_2)" />
  <path
    d="M1.22692 8.55422C1.22692 8.72057 1.09217 8.85542 0.925959 8.85542C0.759744 8.85542 0.625 8.72057 0.625 8.55422C0.625 8.38787 0.759744 8.25301 0.925959 8.25301C1.09217 8.25301 1.22692 8.38787 1.22692 8.55422Z"
    fill="url(#paint26_linear_7_2)" />
  <path
    d="M1.22692 9.21687C1.22692 9.38322 1.09217 9.51807 0.925959 9.51807C0.759744 9.51807 0.625 9.38322 0.625 9.21687C0.625 9.05052 0.759744 8.91566 0.925959 8.91566C1.09217 8.91566 1.22692 9.05052 1.22692 9.21687Z"
    fill="url(#paint27_linear_7_2)" />
  <path
    d="M1.22692 9.87952C1.22692 10.0459 1.09217 10.1807 0.925959 10.1807C0.759744 10.1807 0.625 10.0459 0.625 9.87952C0.625 9.71317 0.759744 9.57831 0.925959 9.57831C1.09217 9.57831 1.22692 9.71317 1.22692 9.87952Z"
    fill="url(#paint28_linear_7_2)" />
  <path
    d="M1.22692 10.5422C1.22692 10.7085 1.09217 10.8434 0.925959 10.8434C0.759744 10.8434 0.625 10.7085 0.625 10.5422C0.625 10.3758 0.759744 10.241 0.925959 10.241C1.09217 10.241 1.22692 10.3758 1.22692 10.5422Z"
    fill="url(#paint29_linear_7_2)" />
  <path
    d="M1.22692 11.2048C1.22692 11.3712 1.09217 11.506 0.925959 11.506C0.759744 11.506 0.625 11.3712 0.625 11.2048C0.625 11.0385 0.759744 10.9036 0.925959 10.9036C1.09217 10.9036 1.22692 11.0385 1.22692 11.2048Z"
    fill="url(#paint30_linear_7_2)" />
  <path
    d="M1.22692 11.9277C1.22692 12.0941 1.09217 12.2289 0.925959 12.2289C0.759744 12.2289 0.625 12.0941 0.625 11.9277C0.625 11.7614 0.759744 11.6265 0.925959 11.6265C1.09217 11.6265 1.22692 11.7614 1.22692 11.9277Z"
    fill="url(#paint31_linear_7_2)" />
  <path
    d="M1.28711 12.6506C1.28711 12.817 1.15237 12.9518 0.986151 12.9518C0.819936 12.9518 0.685192 12.817 0.685192 12.6506C0.685192 12.4843 0.819936 12.3494 0.986151 12.3494C1.15237 12.3494 1.28711 12.4843 1.28711 12.6506Z"
    fill="url(#paint32_linear_7_2)" />
  <path
    d="M1.52788 13.3735C1.52788 13.5398 1.39313 13.6747 1.22692 13.6747C1.0607 13.6747 0.925959 13.5398 0.925959 13.3735C0.925959 13.2071 1.0607 13.0723 1.22692 13.0723C1.39313 13.0723 1.52788 13.2071 1.52788 13.3735Z"
    fill="url(#paint33_linear_7_2)" />
  <path
    d="M1.94922 13.9759C1.94922 14.1423 1.81447 14.2771 1.64826 14.2771C1.48204 14.2771 1.3473 14.1423 1.3473 13.9759C1.3473 13.8096 1.48204 13.6747 1.64826 13.6747C1.81447 13.6747 1.94922 13.8096 1.94922 13.9759Z"
    fill="url(#paint34_linear_7_2)" />
  <path
    d="M2.61133 14.3373C2.61133 14.5037 2.47658 14.6386 2.31037 14.6386C2.14415 14.6386 2.00941 14.5037 2.00941 14.3373C2.00941 14.171 2.14415 14.0361 2.31037 14.0361C2.47658 14.0361 2.61133 14.171 2.61133 14.3373Z"
    fill="url(#paint35_linear_7_2)" />
  <path
    d="M3.33363 14.5783C3.33363 14.7447 3.19889 14.8795 3.03267 14.8795C2.86646 14.8795 2.73171 14.7447 2.73171 14.5783C2.73171 14.412 2.86646 14.2771 3.03267 14.2771C3.19889 14.2771 3.33363 14.412 3.33363 14.5783Z"
    fill="url(#paint36_linear_7_2)" />
  <path
    d="M4.05593 14.6386C4.05593 14.8049 3.92119 14.9398 3.75497 14.9398C3.58876 14.9398 3.45401 14.8049 3.45401 14.6386C3.45401 14.4722 3.58876 14.3373 3.75497 14.3373C3.92119 14.3373 4.05593 14.4722 4.05593 14.6386Z"
    fill="url(#paint37_linear_7_2)" />
  <path
    d="M4.77823 14.6988C4.77823 14.8651 4.64349 15 4.47727 15C4.31106 15 4.17631 14.8651 4.17631 14.6988C4.17631 14.5324 4.31106 14.3976 4.47727 14.3976C4.64349 14.3976 4.77823 14.5324 4.77823 14.6988Z"
    fill="url(#paint38_linear_7_2)" />
  <path
    d="M5.50053 14.6988C5.50053 14.8651 5.36579 15 5.19957 15C5.03336 15 4.89861 14.8651 4.89861 14.6988C4.89861 14.5324 5.03336 14.3976 5.19957 14.3976C5.36579 14.3976 5.50053 14.5324 5.50053 14.6988Z"
    fill="url(#paint39_linear_7_2)" />
  <path
    d="M6.22283 14.6988C6.22283 14.8651 6.08809 15 5.92187 15C5.75566 15 5.62092 14.8651 5.62092 14.6988C5.62092 14.5324 5.75566 14.3976 5.92187 14.3976C6.08809 14.3976 6.22283 14.5324 6.22283 14.6988Z"
    fill="url(#paint40_linear_7_2)" />
  <path
    d="M9.89453 13.8855C9.89453 14.0519 10.0293 14.1867 10.1955 14.1867C10.3617 14.1867 10.4964 14.0519 10.4964 13.8855C10.4964 13.7192 10.3617 13.5843 10.1955 13.5843C10.0293 13.5843 9.89453 13.7192 9.89453 13.8855Z"
    fill="url(#paint41_linear_7_2)" />
  <path
    d="M9.23242 14.3373C9.23242 14.5037 9.36716 14.6386 9.53338 14.6386C9.69959 14.6386 9.83434 14.5037 9.83434 14.3373C9.83434 14.171 9.69959 14.0361 9.53338 14.0361C9.36716 14.0361 9.23242 14.171 9.23242 14.3373Z"
    fill="url(#paint42_linear_7_2)" />
  <path
    d="M8.51012 14.5783C8.51012 14.7447 8.64486 14.8795 8.81108 14.8795C8.97729 14.8795 9.11204 14.7447 9.11204 14.5783C9.11204 14.412 8.97729 14.2771 8.81108 14.2771C8.64486 14.2771 8.51012 14.412 8.51012 14.5783Z"
    fill="url(#paint43_linear_7_2)" />
  <path
    d="M7.78782 14.6386C7.78782 14.8049 7.92256 14.9398 8.08878 14.9398C8.25499 14.9398 8.38974 14.8049 8.38974 14.6386C8.38974 14.4722 8.25499 14.3373 8.08878 14.3373C7.92256 14.3373 7.78782 14.4722 7.78782 14.6386Z"
    fill="url(#paint44_linear_7_2)" />
  <path
    d="M7.06552 14.6988C7.06552 14.8651 7.20026 15 7.36648 15C7.53269 15 7.66744 14.8651 7.66744 14.6988C7.66744 14.5324 7.53269 14.3976 7.36648 14.3976C7.20026 14.3976 7.06552 14.5324 7.06552 14.6988Z"
    fill="url(#paint45_linear_7_2)" />
  <path
    d="M6.34322 14.6988C6.34322 14.8651 6.47796 15 6.64418 15C6.81039 15 6.94513 14.8651 6.94513 14.6988C6.94513 14.5324 6.81039 14.3976 6.64418 14.3976C6.47796 14.3976 6.34322 14.5324 6.34322 14.6988Z"
    fill="url(#paint46_linear_7_2)" />
  <path
    d="M6.81137 2.21192C6.81137 2.70159 6.41313 3.09855 5.92187 3.09855C5.43062 3.09855 5.03237 2.70159 5.03237 2.21192C5.03237 1.72226 5.43062 1.3253 5.92187 1.3253C6.41313 1.3253 6.81137 1.72226 6.81137 2.21192Z"
    fill="url(#paint47_linear_7_2)" />
  <path
    d="M6.87491 2.71857C6.98018 2.71857 7.06552 2.80363 7.06552 2.90856V7.595C7.06552 8.22457 6.55349 8.73494 5.92187 8.73494C5.29026 8.73494 4.77823 8.22457 4.77823 7.595V2.90856C4.77823 2.80363 4.86357 2.71857 4.96884 2.71857C5.07411 2.71857 5.15945 2.80363 5.15945 2.90856V7.595C5.15945 8.01471 5.5008 8.35496 5.92187 8.35496C6.34295 8.35496 6.6843 8.01471 6.6843 7.595V2.90856C6.6843 2.80363 6.76964 2.71857 6.87491 2.71857Z"
    fill="url(#paint48_linear_7_2)" />
  <path
    d="M73.8389 10.4044C74.6897 10.4044 75.1105 10.1377 75.1012 9.60448C75.1012 9.43609 75.017 9.30511 74.8487 9.21156C74.6804 9.118 74.47 9.03848 74.2176 8.973C73.9651 8.90751 73.6893 8.83734 73.3901 8.7625C73.0908 8.68766 72.8103 8.58475 72.5485 8.45377C72.2867 8.3228 72.0717 8.1544 71.9034 7.94859C71.7351 7.73341 71.6509 7.47146 71.6509 7.16274C71.6509 6.85401 71.6977 6.59206 71.7912 6.37689C71.8847 6.15236 72.0249 5.96057 72.2119 5.80153C72.614 5.45539 73.175 5.28231 73.895 5.28231C74.4747 5.28231 75.031 5.37586 75.564 5.56297C75.6668 5.60039 75.7463 5.66588 75.8024 5.75943C75.8679 5.84363 75.9006 5.93719 75.9006 6.04009C75.9006 6.13365 75.8538 6.2272 75.7603 6.32075C75.6762 6.41431 75.592 6.46108 75.5079 6.46108C75.4237 6.46108 75.3209 6.44237 75.1993 6.40495C74.8347 6.29269 74.4326 6.23656 73.9931 6.23656C73.5537 6.23656 73.2218 6.3114 72.9973 6.46108C72.7729 6.61077 72.6607 6.79788 72.6607 7.02241C72.6607 7.23758 72.7449 7.39662 72.9132 7.49953C73.0815 7.59308 73.2919 7.67728 73.5443 7.75212C73.8061 7.82697 74.0866 7.89713 74.3859 7.96262C74.6944 8.02811 74.9749 8.12634 75.2274 8.25731C75.8258 8.56604 76.125 9.03848 76.125 9.67465C76.125 10.1705 75.938 10.5681 75.564 10.8675C75.1713 11.2042 74.6149 11.3726 73.895 11.3726C73.1283 11.3726 72.4363 11.1996 71.8192 10.8534C71.6883 10.7599 71.6182 10.6476 71.6088 10.5166C71.6088 10.3763 71.6509 10.2594 71.7351 10.1658C71.8286 10.0629 71.9221 10.0114 72.0156 10.0114C72.1091 10.0114 72.2306 10.0442 72.3802 10.1097C72.8197 10.3061 73.3059 10.4044 73.8389 10.4044Z"
    fill="url(#paint49_linear_7_2)" />
  <path
    d="M69.7463 3.33172C69.7463 3.18204 69.7977 3.06042 69.9005 2.96686C70.0034 2.86395 70.1296 2.8125 70.2792 2.8125C70.4288 2.8125 70.5504 2.86395 70.6439 2.96686C70.7467 3.06042 70.7982 3.18204 70.7982 3.33172V10.7973C70.7982 10.9376 70.7467 11.0592 70.6439 11.1621C70.5504 11.2651 70.4288 11.3165 70.2792 11.3165C70.1296 11.3165 70.0034 11.2651 69.9005 11.1621C69.7977 11.0592 69.7463 10.9376 69.7463 10.7973V3.33172Z"
    fill="url(#paint50_linear_7_2)" />
  <path
    d="M64.5457 8.70637C64.6111 9.22091 64.8075 9.63255 65.1347 9.94127C65.4713 10.2406 65.9295 10.3903 66.5092 10.3903C67.0983 10.3903 67.5985 10.2968 68.0099 10.1097C68.1408 10.0442 68.2577 10.0114 68.3606 10.0114C68.4634 10.0021 68.5569 10.0395 68.6411 10.1237C68.7346 10.2079 68.7813 10.3015 68.7813 10.4044C68.7813 10.6102 68.6972 10.7552 68.5289 10.8394C68.3699 10.9236 68.225 10.9984 68.0941 11.0639C67.9632 11.1294 67.8229 11.1855 67.6733 11.2323C67.3274 11.3259 66.9253 11.3726 66.4671 11.3726C65.5228 11.3726 64.7888 11.1107 64.2652 10.5868C63.7509 10.0535 63.4938 9.30043 63.4938 8.32748C63.4938 7.4855 63.7135 6.78384 64.153 6.22252C64.6485 5.59572 65.3451 5.28231 66.2427 5.28231C67.103 5.28231 67.7808 5.57233 68.2764 6.15236C68.7439 6.69497 68.9777 7.37323 68.9777 8.18715C68.9777 8.32748 68.9263 8.4491 68.8234 8.552C68.7299 8.65491 68.6083 8.70637 68.4587 8.70637H64.5457ZM66.2427 6.16639C65.5602 6.16639 65.0646 6.47044 64.756 7.07854C64.6438 7.29371 64.5737 7.55098 64.5457 7.85035H67.9398C67.9117 7.30774 67.7107 6.8774 67.3367 6.55932C67.0375 6.29737 66.6728 6.16639 66.2427 6.16639Z"
    fill="url(#paint51_linear_7_2)" />
  <path
    d="M58.3633 6.15236C58.9336 5.57233 59.5882 5.28231 60.3268 5.28231C61.0749 5.28231 61.7107 5.54426 62.2343 6.06816C62.814 6.64819 63.1085 7.4013 63.1179 8.32748C63.1179 9.26301 62.8233 10.0208 62.2343 10.6008C61.692 11.1247 61.0515 11.382 60.3128 11.3726C59.5835 11.3726 58.9336 11.0826 58.3633 10.5026V10.7973C58.3633 10.9376 58.3119 11.0592 58.209 11.1621C58.1155 11.2651 57.9939 11.3165 57.8443 11.3165C57.6947 11.3165 57.5685 11.2651 57.4657 11.1621C57.3722 11.0592 57.3254 10.9376 57.3254 10.7973V3.33172C57.3254 3.18204 57.3722 3.06042 57.4657 2.96686C57.5685 2.86395 57.6947 2.8125 57.8443 2.8125C57.9939 2.8125 58.1155 2.86395 58.209 2.96686C58.3119 3.06042 58.3633 3.18204 58.3633 3.33172V6.15236ZM58.3633 9.53432C58.8869 10.1143 59.4947 10.3997 60.1866 10.3903C61.0655 10.3903 61.6499 10.0021 61.9398 9.22559C62.0333 8.96364 62.0753 8.66427 62.066 8.32748C62.066 7.6726 61.893 7.15806 61.547 6.78384C61.2104 6.4377 60.7569 6.26462 60.1866 6.26462C59.4947 6.26462 58.8869 6.54996 58.3633 7.12064V9.53432Z"
    fill="url(#paint52_linear_7_2)" />
  <path
    d="M52.036 5.68927C52.6811 5.40861 53.3497 5.27296 54.0416 5.28231C54.8177 5.28231 55.4208 5.52087 55.8509 5.998C56.2342 6.40963 56.4306 6.92418 56.4399 7.54163V10.7973C56.4399 10.9376 56.3838 11.0592 56.2716 11.1621C56.1688 11.2651 56.0426 11.3165 55.893 11.3165C55.7527 11.3165 55.6311 11.2651 55.5283 11.1621C55.4254 11.0592 55.374 10.9376 55.374 10.7973V10.5026C55.1683 10.7178 54.8925 10.9189 54.5465 11.106C54.2006 11.2838 53.7611 11.3726 53.2281 11.3726C52.6952 11.3726 52.251 11.2183 51.8957 10.9096C51.5311 10.5915 51.3487 10.1752 51.3487 9.66061C51.3487 9.08994 51.5638 8.64088 51.9939 8.31344C52.4614 7.95794 53.1253 7.78487 53.9855 7.79422H55.374V7.69599C55.374 7.18145 55.2478 6.81659 54.9953 6.60142C54.7522 6.38624 54.3689 6.27866 53.8452 6.27866C53.4058 6.27866 52.8962 6.36753 52.3165 6.54528C52.2604 6.56399 52.1903 6.57335 52.1061 6.57335C52.0313 6.57335 51.9518 6.53593 51.8677 6.46109C51.7835 6.37689 51.7368 6.25059 51.7274 6.08219C51.7274 5.90444 51.8303 5.77347 52.036 5.68927ZM52.4006 9.53432C52.4006 10.1518 52.8074 10.4558 53.6208 10.4465C53.9762 10.4465 54.3081 10.3623 54.6166 10.1939C54.9346 10.0161 55.187 9.81965 55.374 9.60448V8.6362H54.1398C53.5975 8.6362 53.172 8.70637 52.8635 8.8467C52.5549 8.97767 52.4006 9.20688 52.4006 9.53432Z"
    fill="url(#paint53_linear_7_2)" />
  <path
    d="M50.496 10.2219C50.6456 10.2219 50.7671 10.2734 50.8606 10.3763C50.9635 10.4699 51.0149 10.5915 51.0149 10.7412C51.0149 10.8815 50.9635 11.0031 50.8606 11.106C50.7671 11.2089 50.6456 11.2604 50.496 11.2604H46.4146C46.2089 11.2604 46.0359 11.1902 45.8957 11.0499C45.7554 10.9096 45.6853 10.7365 45.6853 10.5307V3.71061C45.6853 3.57028 45.7367 3.44866 45.8396 3.34575C45.9424 3.23349 46.064 3.17736 46.2042 3.17736C46.3445 3.17736 46.466 3.22881 46.5689 3.33172C46.6811 3.43463 46.7372 3.56093 46.7372 3.71061V10.2219H50.496Z"
    fill="url(#paint54_linear_7_2)" />
  <path
    d="M40.0808 6.25059C39.4075 6.25059 38.7764 6.62013 38.1873 7.3592V10.7973C38.1873 10.9376 38.1359 11.0592 38.0331 11.1621C37.9302 11.2651 37.8086 11.3165 37.6684 11.3165C37.5281 11.3165 37.4066 11.2651 37.3037 11.1621C37.2009 11.0592 37.1495 10.9376 37.1495 10.7973V5.8717C37.1495 5.72201 37.1962 5.59572 37.2897 5.49281C37.3926 5.3899 37.5188 5.33844 37.6684 5.33844C37.8086 5.33844 37.9302 5.3899 38.0331 5.49281C38.1359 5.58636 38.1873 5.71266 38.1873 5.8717V6.34882C38.4959 6.03074 38.7624 5.80153 38.9868 5.6612C39.4169 5.40861 39.8283 5.28231 40.221 5.28231C40.6231 5.28231 40.9503 5.34312 41.2028 5.46474C41.4552 5.577 41.6703 5.74072 41.848 5.9559C42.2033 6.37689 42.3809 6.90079 42.3809 7.52759V10.7973C42.3809 10.9376 42.3295 11.0592 42.2266 11.1621C42.1238 11.2651 42.0022 11.3165 41.862 11.3165C41.7217 11.3165 41.6002 11.2651 41.4973 11.1621C41.3945 11.0592 41.343 10.9376 41.343 10.7973V7.63986C41.343 7.20951 41.2449 6.87272 41.0485 6.62948C40.8522 6.37689 40.5296 6.25059 40.0808 6.25059Z"
    fill="url(#paint55_linear_7_2)" />
  <path
    d="M32.033 8.70637C32.0985 9.22091 32.2948 9.63255 32.6221 9.94127C32.9587 10.2406 33.4168 10.3903 33.9966 10.3903C34.5856 10.3903 35.0859 10.2968 35.4973 10.1097C35.6282 10.0442 35.745 10.0114 35.8479 10.0114C35.9508 10.0021 36.0443 10.0395 36.1284 10.1237C36.2219 10.2079 36.2687 10.3015 36.2687 10.4044C36.2687 10.6102 36.1845 10.7552 36.0162 10.8394C35.8573 10.9236 35.7123 10.9984 35.5814 11.0639C35.4505 11.1294 35.3103 11.1855 35.1607 11.2323C34.8147 11.3259 34.4126 11.3726 33.9545 11.3726C33.0101 11.3726 32.2761 11.1107 31.7525 10.5868C31.2382 10.0535 30.9811 9.30043 30.9811 8.32748C30.9811 7.4855 31.2008 6.78384 31.6403 6.22252C32.1359 5.59572 32.8325 5.28231 33.7301 5.28231C34.5903 5.28231 35.2682 5.57233 35.7638 6.15236C36.2313 6.69497 36.465 7.37323 36.465 8.18715C36.465 8.32748 36.4136 8.4491 36.3107 8.552C36.2172 8.65491 36.0957 8.70637 35.9461 8.70637H32.033ZM33.7301 6.16639C33.0475 6.16639 32.5519 6.47044 32.2434 7.07854C32.1312 7.29371 32.0611 7.55098 32.033 7.85035H35.4271C35.3991 7.30774 35.1981 6.8774 34.8241 6.55932C34.5248 6.29737 34.1602 6.16639 33.7301 6.16639Z"
    fill="url(#paint56_linear_7_2)" />
  <path
    d="M25.701 6.15236C26.2714 5.57233 26.9259 5.28231 27.6646 5.28231C28.4126 5.28231 29.0484 5.54426 29.572 6.06816C30.1517 6.64819 30.4463 7.4013 30.4556 8.32748C30.4556 9.26301 30.1611 10.0208 29.572 10.6008C29.0297 11.1247 28.3892 11.382 27.6505 11.3726C26.9212 11.3726 26.2714 11.0826 25.701 10.5026V13.4355C25.701 13.5852 25.6496 13.7115 25.5467 13.8144C25.4532 13.9173 25.3317 13.9688 25.1821 13.9688C25.0325 13.9688 24.9063 13.9173 24.8034 13.8144C24.7099 13.7115 24.6631 13.5852 24.6631 13.4355V5.85767C24.6631 5.71733 24.7099 5.59572 24.8034 5.49281C24.9063 5.3899 25.0325 5.33844 25.1821 5.33844C25.3317 5.33844 25.4532 5.3899 25.5467 5.49281C25.6496 5.58636 25.701 5.70798 25.701 5.85767V6.15236ZM25.701 9.53432C26.2246 10.1143 26.8324 10.3997 27.5243 10.3903C28.4032 10.3903 28.9876 10.0021 29.2775 9.22559C29.371 8.96364 29.4131 8.66427 29.4037 8.32748C29.4037 7.6726 29.2307 7.15806 28.8848 6.78384C28.5482 6.4377 28.0947 6.26462 27.5243 6.26462C26.8324 6.26462 26.2246 6.54996 25.701 7.12064V9.53432Z"
    fill="url(#paint57_linear_7_2)" />
  <path
    d="M17.0595 4.27193C17.7888 3.5048 18.7613 3.12123 19.9768 3.12123C21.1923 3.12123 22.1648 3.5048 22.8941 4.27193C23.6047 5.02972 23.974 6.02138 24.0021 7.24693C23.974 8.46313 23.6047 9.4548 22.8941 10.2219C22.1648 10.9891 21.1923 11.3726 19.9768 11.3726C18.7613 11.3726 17.7888 10.9891 17.0595 10.2219C16.3302 9.4548 15.9562 8.46313 15.9375 7.24693C15.9562 6.03074 16.3302 5.03907 17.0595 4.27193ZM19.9768 10.3903C20.9118 10.3903 21.6458 10.091 22.1788 9.49222C22.7024 8.91219 22.9642 8.16376 22.9642 7.24693C22.9642 6.33011 22.7024 5.58168 22.1788 5.00165C21.6365 4.39355 20.9025 4.09418 19.9768 4.10354C19.0418 4.10354 18.3031 4.40291 17.7608 5.00165C17.2372 5.58168 16.9801 6.33011 16.9894 7.24693C16.9894 8.16376 17.2465 8.91219 17.7608 9.49222C18.3031 10.091 19.0418 10.3903 19.9768 10.3903Z"
    fill="url(#paint58_linear_7_2)" />
  <path
    d="M103.085 9.19377C103.118 9.46394 103.22 9.68008 103.389 9.84218C103.563 9.99937 103.8 10.078 104.099 10.078C104.404 10.078 104.662 10.0288 104.875 9.9306C104.943 9.89622 105.003 9.87902 105.056 9.87902C105.109 9.87411 105.158 9.89376 105.201 9.93797C105.249 9.98218 105.274 10.0313 105.274 10.0853C105.274 10.1934 105.23 10.2695 105.143 10.3138C105.061 10.358 104.986 10.3973 104.918 10.4316C104.851 10.466 104.778 10.4955 104.701 10.5201C104.522 10.5692 104.314 10.5938 104.078 10.5938C103.589 10.5938 103.21 10.4562 102.94 10.1811C102.674 9.90113 102.541 9.5057 102.541 8.99483C102.541 8.55273 102.654 8.18431 102.882 7.88958C103.138 7.56046 103.498 7.3959 103.962 7.3959C104.406 7.3959 104.756 7.54818 105.013 7.85274C105.254 8.13765 105.375 8.49378 105.375 8.92114C105.375 8.99483 105.348 9.05869 105.295 9.11272C105.247 9.16675 105.184 9.19377 105.107 9.19377H103.085ZM103.962 7.86011C103.609 7.86011 103.353 8.01975 103.193 8.33905C103.135 8.45203 103.099 8.58711 103.085 8.7443H104.839C104.824 8.4594 104.72 8.23343 104.527 8.06642C104.372 7.92888 104.184 7.86011 103.962 7.86011Z"
    fill="url(#paint59_linear_7_2)" />
  <path
    d="M101.294 7.58011C101.343 7.47204 101.43 7.42046 101.555 7.42538C101.618 7.42538 101.676 7.45239 101.729 7.50643C101.783 7.56046 101.809 7.61204 101.809 7.66116C101.809 7.72502 101.799 7.78151 101.78 7.83063L100.744 10.3432C100.715 10.4022 100.671 10.4538 100.613 10.498C100.56 10.5422 100.495 10.5643 100.417 10.5643H100.359C100.287 10.5643 100.222 10.5422 100.164 10.498C100.106 10.4538 100.062 10.4022 100.033 10.3432L99.004 7.83063C98.9847 7.78151 98.975 7.72993 98.975 7.6759C98.975 7.61695 98.9991 7.56046 99.0475 7.50643C99.0958 7.45239 99.1538 7.42538 99.2214 7.42538C99.3471 7.42538 99.434 7.47695 99.4824 7.58011L100.388 9.9306L101.294 7.58011Z"
    fill="url(#paint60_linear_7_2)" />
  <path
    d="M97.4894 7.70537C97.4894 7.62186 97.5159 7.55555 97.5691 7.50643C97.6222 7.45239 97.6875 7.42538 97.7648 7.42538C97.8421 7.42538 97.9049 7.45239 97.9533 7.50643C98.0016 7.55555 98.0257 7.62186 98.0257 7.70537V10.2916C98.0257 10.3653 98.0016 10.4292 97.9533 10.4832C97.9049 10.5373 97.8421 10.5643 97.7648 10.5643C97.6875 10.5643 97.6222 10.5373 97.5691 10.4832C97.5159 10.4292 97.4894 10.3653 97.4894 10.2916V7.70537ZM98.0837 6.51907C98.0837 6.60749 98.0547 6.68118 97.9967 6.74012C97.9388 6.79907 97.8663 6.82854 97.7793 6.82854H97.7431C97.6561 6.82854 97.5836 6.79907 97.5256 6.74012C97.4724 6.68118 97.4459 6.60749 97.4459 6.51907V6.49697C97.4459 6.40855 97.4749 6.33487 97.5329 6.27592C97.5908 6.21697 97.6609 6.1875 97.7431 6.1875H97.7793C97.8663 6.1875 97.9388 6.21697 97.9967 6.27592C98.0547 6.33487 98.0837 6.40855 98.0837 6.49697V6.51907Z"
    fill="url(#paint61_linear_7_2)" />
  <path
    d="M95.9965 10.1074C96.1028 10.1074 96.1777 10.1001 96.2212 10.0853C96.2695 10.0657 96.3202 10.0559 96.3734 10.0559C96.4266 10.0559 96.4749 10.078 96.5184 10.1222C96.5619 10.1615 96.5836 10.2229 96.5836 10.3064C96.5836 10.385 96.5449 10.4415 96.4676 10.4759C96.2985 10.5545 96.1535 10.5938 96.0327 10.5938C95.9119 10.5938 95.8008 10.5864 95.6993 10.5716C95.6027 10.5618 95.5084 10.5299 95.4166 10.4759C95.1992 10.3481 95.0904 10.1222 95.0904 9.79797V7.92642H94.67C94.5976 7.92642 94.5589 7.88712 94.5541 7.80853C94.5541 7.77414 94.5734 7.74221 94.6121 7.71274L95.4166 6.90959C95.4504 6.87521 95.4843 6.85802 95.5181 6.85802C95.5519 6.8531 95.5785 6.86293 95.5978 6.88749C95.6172 6.91205 95.6268 6.94152 95.6268 6.97591V7.45485H96.3009C96.3686 7.45485 96.4241 7.47695 96.4676 7.52116C96.5111 7.56537 96.5329 7.62186 96.5329 7.69064C96.5329 7.75941 96.5111 7.8159 96.4676 7.86011C96.4241 7.90432 96.3686 7.92642 96.3009 7.92642H95.6268V9.75376C95.6268 9.90604 95.6727 10.0092 95.7645 10.0632C95.8129 10.0927 95.8902 10.1074 95.9965 10.1074Z"
    fill="url(#paint62_linear_7_2)" />
  <path
    d="M91.4158 7.60958C91.7492 7.46222 92.0947 7.39099 92.4523 7.3959C92.8534 7.3959 93.1651 7.52116 93.3874 7.77168C93.5855 7.98782 93.687 8.25799 93.6918 8.5822V10.2916C93.6918 10.3653 93.6628 10.4292 93.6048 10.4832C93.5517 10.5373 93.4864 10.5643 93.4091 10.5643C93.3366 10.5643 93.2738 10.5373 93.2207 10.4832C93.1675 10.4292 93.1409 10.3653 93.1409 10.2916V10.1369C93.0346 10.2499 92.8921 10.3555 92.7133 10.4537C92.5345 10.5471 92.3074 10.5937 92.0319 10.5937C91.7565 10.5937 91.527 10.5127 91.3433 10.3506C91.1549 10.1836 91.0606 9.96499 91.0606 9.69481C91.0606 9.39517 91.1718 9.15938 91.3941 8.98746C91.6357 8.80079 91.9788 8.70992 92.4233 8.71483H93.1409V8.66325C93.1409 8.39308 93.0757 8.2015 92.9452 8.08852C92.8196 7.97554 92.6215 7.91905 92.3509 7.91905C92.1237 7.91905 91.8604 7.96572 91.5608 8.05905C91.5318 8.06887 91.4955 8.07379 91.4521 8.07379C91.4134 8.07379 91.3723 8.05414 91.3288 8.01484C91.2853 7.97063 91.2612 7.90431 91.2563 7.81589C91.2563 7.72256 91.3095 7.65379 91.4158 7.60958ZM91.6043 9.6285C91.6043 9.9527 91.8145 10.1124 92.2349 10.1074C92.4185 10.1074 92.59 10.0632 92.7495 9.97481C92.9138 9.88148 93.0443 9.77832 93.1409 9.66534V9.15693H92.5031C92.2228 9.15693 92.0029 9.19377 91.8435 9.26745C91.684 9.33622 91.6043 9.45657 91.6043 9.6285Z"
    fill="url(#paint63_linear_7_2)" />
  <path
    d="M89.5098 7.70537C89.5098 7.62186 89.5364 7.55555 89.5895 7.50643C89.6427 7.45239 89.7079 7.42538 89.7852 7.42538C89.8625 7.42538 89.9254 7.45239 89.9737 7.50643C90.022 7.55555 90.0462 7.62186 90.0462 7.70537V10.2916C90.0462 10.3653 90.022 10.4292 89.9737 10.4832C89.9254 10.5373 89.8625 10.5643 89.7852 10.5643C89.7079 10.5643 89.6427 10.5373 89.5895 10.4832C89.5364 10.4292 89.5098 10.3653 89.5098 10.2916V7.70537ZM90.1042 6.51907C90.1042 6.60749 90.0752 6.68118 90.0172 6.74012C89.9592 6.79907 89.8867 6.82854 89.7997 6.82854H89.7635C89.6765 6.82854 89.604 6.79907 89.546 6.74012C89.4929 6.68118 89.4663 6.60749 89.4663 6.51907V6.49697C89.4663 6.40855 89.4953 6.33487 89.5533 6.27592C89.6113 6.21697 89.6813 6.1875 89.7635 6.1875H89.7997C89.8867 6.1875 89.9592 6.21697 90.0172 6.27592C90.0752 6.33487 90.1042 6.40855 90.1042 6.49697V6.51907Z"
    fill="url(#paint64_linear_7_2)" />
  <path
    d="M88.0169 10.1074C88.1232 10.1074 88.1981 10.1001 88.2416 10.0853C88.2899 10.0657 88.3407 10.0559 88.3938 10.0559C88.447 10.0559 88.4953 10.078 88.5388 10.1222C88.5823 10.1615 88.604 10.2229 88.604 10.3064C88.604 10.385 88.5654 10.4415 88.4881 10.4759C88.3189 10.5545 88.174 10.5938 88.0532 10.5938C87.9323 10.5938 87.8212 10.5864 87.7197 10.5716C87.6231 10.5618 87.5289 10.5299 87.437 10.4759C87.2196 10.3481 87.1109 10.1222 87.1109 9.79797V7.92642H86.6905C86.618 7.92642 86.5793 7.88712 86.5745 7.80853C86.5745 7.77414 86.5938 7.74221 86.6325 7.71274L87.437 6.90959C87.4709 6.87521 87.5047 6.85802 87.5385 6.85802C87.5723 6.8531 87.5989 6.86293 87.6183 6.88749C87.6376 6.91205 87.6472 6.94152 87.6472 6.97591V7.45485H88.3213C88.389 7.45485 88.4446 7.47695 88.4881 7.52116C88.5315 7.56537 88.5533 7.62186 88.5533 7.69064C88.5533 7.75941 88.5315 7.8159 88.4881 7.86011C88.4446 7.90432 88.389 7.92642 88.3213 7.92642H87.6472V9.75376C87.6472 9.90604 87.6932 10.0092 87.785 10.0632C87.8333 10.0927 87.9106 10.1074 88.0169 10.1074Z"
    fill="url(#paint65_linear_7_2)" />
  <path
    d="M85.1179 7.70537C85.1179 7.62186 85.1444 7.55555 85.1976 7.50643C85.2507 7.45239 85.316 7.42538 85.3933 7.42538C85.4706 7.42538 85.5334 7.45239 85.5818 7.50643C85.6301 7.55555 85.6542 7.62186 85.6542 7.70537V10.2916C85.6542 10.3653 85.6301 10.4292 85.5818 10.4832C85.5334 10.5373 85.4706 10.5643 85.3933 10.5643C85.316 10.5643 85.2507 10.5373 85.1976 10.4832C85.1444 10.4292 85.1179 10.3653 85.1179 10.2916V7.70537ZM85.7122 6.51907C85.7122 6.60749 85.6832 6.68118 85.6252 6.74012C85.5673 6.79907 85.4948 6.82854 85.4078 6.82854H85.3716C85.2846 6.82854 85.2121 6.79907 85.1541 6.74012C85.1009 6.68118 85.0744 6.60749 85.0744 6.51907V6.49697C85.0744 6.40855 85.1034 6.33487 85.1613 6.27592C85.2193 6.21697 85.2894 6.1875 85.3716 6.1875H85.4078C85.4948 6.1875 85.5673 6.21697 85.6252 6.27592C85.6832 6.33487 85.7122 6.40855 85.7122 6.49697V6.51907Z"
    fill="url(#paint66_linear_7_2)" />
  <path
    d="M82.7044 7.90432C82.3565 7.90432 82.0303 8.09835 81.7259 8.48641V10.2916C81.7259 10.3653 81.6993 10.4292 81.6462 10.4832C81.593 10.5373 81.5302 10.5643 81.4577 10.5643C81.3852 10.5643 81.3224 10.5373 81.2693 10.4832C81.2161 10.4292 81.1895 10.3653 81.1895 10.2916V7.70537C81.1895 7.62678 81.2137 7.56046 81.262 7.50643C81.3152 7.45239 81.3804 7.42538 81.4577 7.42538C81.5302 7.42538 81.593 7.45239 81.6462 7.50643C81.6993 7.55555 81.7259 7.62186 81.7259 7.70537V7.95589C81.8854 7.78888 82.0231 7.66853 82.1391 7.59485C82.3614 7.46222 82.574 7.3959 82.7769 7.3959C82.9847 7.3959 83.1538 7.42783 83.2843 7.49169C83.4148 7.55064 83.5259 7.6366 83.6177 7.74958C83.8014 7.97063 83.8932 8.24571 83.8932 8.57483V10.2916C83.8932 10.3653 83.8666 10.4292 83.8134 10.4832C83.7603 10.5373 83.6975 10.5643 83.625 10.5643C83.5525 10.5643 83.4897 10.5373 83.4365 10.4832C83.3834 10.4292 83.3568 10.3653 83.3568 10.2916V8.63378C83.3568 8.40782 83.3061 8.23098 83.2046 8.10326C83.1031 7.97063 82.9364 7.90432 82.7044 7.90432Z"
    fill="url(#paint67_linear_7_2)" />
  <path
    d="M79.5807 6.29066C79.6532 6.29066 79.716 6.31767 79.7691 6.37171C79.8271 6.42574 79.8561 6.49206 79.8561 6.57065V10.2916C79.8561 10.3653 79.8295 10.4292 79.7764 10.4832C79.7232 10.5373 79.658 10.5643 79.5807 10.5643C79.5082 10.5643 79.4454 10.5373 79.3922 10.4832C79.3391 10.4292 79.3125 10.3653 79.3125 10.2916V6.57065C79.3125 6.49697 79.3391 6.43311 79.3922 6.37908C79.4454 6.32013 79.5082 6.29066 79.5807 6.29066Z"
    fill="url(#paint68_linear_7_2)" />
  <defs>
    <linearGradient id="paint0_linear_7_2" x1="-0.699219" y1="17.3023" x2="13.4239" y2="2.04066"
      gradientUnits="userSpaceOnUse">
      <stop stop-color="#5C44C2" />
      <stop offset="0.499384" stop-color="#69ADDA" />
      <stop offset="0.945" stop-color="#FF1684" />
    </linearGradient>
    <linearGradient id="paint1_linear_7_2" x1="-0.699219" y1="17.3023" x2="13.4239" y2="2.04066"
      gradientUnits="userSpaceOnUse">
      <stop stop-color="#5C44C2" />
      <stop offset="0.499384" stop-color="#69ADDA" />
      <stop offset="0.945" stop-color="#FF1684" />
    </linearGradient>
    <linearGradient id="paint2_linear_7_2" x1="-0.699219" y1="17.3023" x2="13.4239" y2="2.04066"
      gradientUnits="userSpaceOnUse">
      <stop stop-color="#5C44C2" />
      <stop offset="0.499384" stop-color="#69ADDA" />
      <stop offset="0.945" stop-color="#FF1684" />
    </linearGradient>
    <linearGradient id="paint3_linear_7_2" x1="-0.699219" y1="17.3023" x2="13.4239" y2="2.04066"
      gradientUnits="userSpaceOnUse">
      <stop stop-color="#5C44C2" />
      <stop offset="0.499384" stop-color="#69ADDA" />
      <stop offset="0.945" stop-color="#FF1684" />
    </linearGradient>
    <linearGradient id="paint4_linear_7_2" x1="-0.699219" y1="17.3023" x2="13.4239" y2="2.04066"
      gradientUnits="userSpaceOnUse">
      <stop stop-color="#5C44C2" />
      <stop offset="0.499384" stop-color="#69ADDA" />
      <stop offset="0.945" stop-color="#FF1684" />
    </linearGradient>
    <linearGradient id="paint5_linear_7_2" x1="-0.699219" y1="17.3023" x2="13.4239" y2="2.04066"
      gradientUnits="userSpaceOnUse">
      <stop stop-color="#5C44C2" />
      <stop offset="0.499384" stop-color="#69ADDA" />
      <stop offset="0.945" stop-color="#FF1684" />
    </linearGradient>
    <linearGradient id="paint6_linear_7_2" x1="-0.699219" y1="17.3023" x2="13.4239" y2="2.04066"
      gradientUnits="userSpaceOnUse">
      <stop stop-color="#5C44C2" />
      <stop offset="0.499384" stop-color="#69ADDA" />
      <stop offset="0.945" stop-color="#FF1684" />
    </linearGradient>
    <linearGradient id="paint7_linear_7_2" x1="-0.699219" y1="17.3023" x2="13.4239" y2="2.04066"
      gradientUnits="userSpaceOnUse">
      <stop stop-color="#5C44C2" />
      <stop offset="0.499384" stop-color="#69ADDA" />
      <stop offset="0.945" stop-color="#FF1684" />
    </linearGradient>
    <linearGradient id="paint8_linear_7_2" x1="-0.699219" y1="17.3023" x2="13.4239" y2="2.04066"
      gradientUnits="userSpaceOnUse">
      <stop stop-color="#5C44C2" />
      <stop offset="0.499384" stop-color="#69ADDA" />
      <stop offset="0.945" stop-color="#FF1684" />
    </linearGradient>
    <linearGradient id="paint9_linear_7_2" x1="-0.699219" y1="17.3023" x2="13.4239" y2="2.04066"
      gradientUnits="userSpaceOnUse">
      <stop stop-color="#5C44C2" />
      <stop offset="0.499384" stop-color="#69ADDA" />
      <stop offset="0.945" stop-color="#FF1684" />
    </linearGradient>
    <linearGradient id="paint10_linear_7_2" x1="-0.699219" y1="17.3023" x2="13.4239" y2="2.04066"
      gradientUnits="userSpaceOnUse">
      <stop stop-color="#5C44C2" />
      <stop offset="0.499384" stop-color="#69ADDA" />
      <stop offset="0.945" stop-color="#FF1684" />
    </linearGradient>
    <linearGradient id="paint11_linear_7_2" x1="-0.699219" y1="17.3023" x2="13.4239" y2="2.04066"
      gradientUnits="userSpaceOnUse">
      <stop stop-color="#5C44C2" />
      <stop offset="0.499384" stop-color="#69ADDA" />
      <stop offset="0.945" stop-color="#FF1684" />
    </linearGradient>
    <linearGradient id="paint12_linear_7_2" x1="-0.699219" y1="17.3023" x2="13.4239" y2="2.04066"
      gradientUnits="userSpaceOnUse">
      <stop stop-color="#5C44C2" />
      <stop offset="0.499384" stop-color="#69ADDA" />
      <stop offset="0.945" stop-color="#FF1684" />
    </linearGradient>
    <linearGradient id="paint13_linear_7_2" x1="-0.699219" y1="17.3023" x2="13.4239" y2="2.04066"
      gradientUnits="userSpaceOnUse">
      <stop stop-color="#5C44C2" />
      <stop offset="0.499384" stop-color="#69ADDA" />
      <stop offset="0.945" stop-color="#FF1684" />
    </linearGradient>
    <linearGradient id="paint14_linear_7_2" x1="-0.699219" y1="17.3023" x2="13.4239" y2="2.04066"
      gradientUnits="userSpaceOnUse">
      <stop stop-color="#5C44C2" />
      <stop offset="0.499384" stop-color="#69ADDA" />
      <stop offset="0.945" stop-color="#FF1684" />
    </linearGradient>
    <linearGradient id="paint15_linear_7_2" x1="-0.699219" y1="17.3023" x2="13.4239" y2="2.04066"
      gradientUnits="userSpaceOnUse">
      <stop stop-color="#5C44C2" />
      <stop offset="0.499384" stop-color="#69ADDA" />
      <stop offset="0.945" stop-color="#FF1684" />
    </linearGradient>
    <linearGradient id="paint16_linear_7_2" x1="-0.699219" y1="17.3023" x2="13.4239" y2="2.04066"
      gradientUnits="userSpaceOnUse">
      <stop stop-color="#5C44C2" />
      <stop offset="0.499384" stop-color="#69ADDA" />
      <stop offset="0.945" stop-color="#FF1684" />
    </linearGradient>
    <linearGradient id="paint17_linear_7_2" x1="-0.699219" y1="17.3023" x2="13.4239" y2="2.04066"
      gradientUnits="userSpaceOnUse">
      <stop stop-color="#5C44C2" />
      <stop offset="0.499384" stop-color="#69ADDA" />
      <stop offset="0.945" stop-color="#FF1684" />
    </linearGradient>
    <linearGradient id="paint18_linear_7_2" x1="-0.699219" y1="17.3023" x2="13.4239" y2="2.04066"
      gradientUnits="userSpaceOnUse">
      <stop stop-color="#5C44C2" />
      <stop offset="0.499384" stop-color="#69ADDA" />
      <stop offset="0.945" stop-color="#FF1684" />
    </linearGradient>
    <linearGradient id="paint19_linear_7_2" x1="-0.699219" y1="17.3023" x2="13.4239" y2="2.04066"
      gradientUnits="userSpaceOnUse">
      <stop stop-color="#5C44C2" />
      <stop offset="0.499384" stop-color="#69ADDA" />
      <stop offset="0.945" stop-color="#FF1684" />
    </linearGradient>
    <linearGradient id="paint20_linear_7_2" x1="-0.699219" y1="17.3023" x2="13.4239" y2="2.04066"
      gradientUnits="userSpaceOnUse">
      <stop stop-color="#5C44C2" />
      <stop offset="0.499384" stop-color="#69ADDA" />
      <stop offset="0.945" stop-color="#FF1684" />
    </linearGradient>
    <linearGradient id="paint21_linear_7_2" x1="-0.699219" y1="17.3023" x2="13.4239" y2="2.04066"
      gradientUnits="userSpaceOnUse">
      <stop stop-color="#5C44C2" />
      <stop offset="0.499384" stop-color="#69ADDA" />
      <stop offset="0.945" stop-color="#FF1684" />
    </linearGradient>
    <linearGradient id="paint22_linear_7_2" x1="-0.699219" y1="17.3023" x2="13.4239" y2="2.04066"
      gradientUnits="userSpaceOnUse">
      <stop stop-color="#5C44C2" />
      <stop offset="0.499384" stop-color="#69ADDA" />
      <stop offset="0.945" stop-color="#FF1684" />
    </linearGradient>
    <linearGradient id="paint23_linear_7_2" x1="-0.699219" y1="17.3023" x2="13.4239" y2="2.04066"
      gradientUnits="userSpaceOnUse">
      <stop stop-color="#5C44C2" />
      <stop offset="0.499384" stop-color="#69ADDA" />
      <stop offset="0.945" stop-color="#FF1684" />
    </linearGradient>
    <linearGradient id="paint24_linear_7_2" x1="-0.699219" y1="17.3023" x2="13.4239" y2="2.04066"
      gradientUnits="userSpaceOnUse">
      <stop stop-color="#5C44C2" />
      <stop offset="0.499384" stop-color="#69ADDA" />
      <stop offset="0.945" stop-color="#FF1684" />
    </linearGradient>
    <linearGradient id="paint25_linear_7_2" x1="-0.699219" y1="17.3023" x2="13.4239" y2="2.04066"
      gradientUnits="userSpaceOnUse">
      <stop stop-color="#5C44C2" />
      <stop offset="0.499384" stop-color="#69ADDA" />
      <stop offset="0.945" stop-color="#FF1684" />
    </linearGradient>
    <linearGradient id="paint26_linear_7_2" x1="-0.699219" y1="17.3023" x2="13.4239" y2="2.04066"
      gradientUnits="userSpaceOnUse">
      <stop stop-color="#5C44C2" />
      <stop offset="0.499384" stop-color="#69ADDA" />
      <stop offset="0.945" stop-color="#FF1684" />
    </linearGradient>
    <linearGradient id="paint27_linear_7_2" x1="-0.699219" y1="17.3023" x2="13.4239" y2="2.04066"
      gradientUnits="userSpaceOnUse">
      <stop stop-color="#5C44C2" />
      <stop offset="0.499384" stop-color="#69ADDA" />
      <stop offset="0.945" stop-color="#FF1684" />
    </linearGradient>
    <linearGradient id="paint28_linear_7_2" x1="-0.699219" y1="17.3023" x2="13.4239" y2="2.04066"
      gradientUnits="userSpaceOnUse">
      <stop stop-color="#5C44C2" />
      <stop offset="0.499384" stop-color="#69ADDA" />
      <stop offset="0.945" stop-color="#FF1684" />
    </linearGradient>
    <linearGradient id="paint29_linear_7_2" x1="-0.699219" y1="17.3023" x2="13.4239" y2="2.04066"
      gradientUnits="userSpaceOnUse">
      <stop stop-color="#5C44C2" />
      <stop offset="0.499384" stop-color="#69ADDA" />
      <stop offset="0.945" stop-color="#FF1684" />
    </linearGradient>
    <linearGradient id="paint30_linear_7_2" x1="-0.699219" y1="17.3023" x2="13.4239" y2="2.04066"
      gradientUnits="userSpaceOnUse">
      <stop stop-color="#5C44C2" />
      <stop offset="0.499384" stop-color="#69ADDA" />
      <stop offset="0.945" stop-color="#FF1684" />
    </linearGradient>
    <linearGradient id="paint31_linear_7_2" x1="-0.699219" y1="17.3023" x2="13.4239" y2="2.04066"
      gradientUnits="userSpaceOnUse">
      <stop stop-color="#5C44C2" />
      <stop offset="0.499384" stop-color="#69ADDA" />
      <stop offset="0.945" stop-color="#FF1684" />
    </linearGradient>
    <linearGradient id="paint32_linear_7_2" x1="-0.699219" y1="17.3023" x2="13.4239" y2="2.04066"
      gradientUnits="userSpaceOnUse">
      <stop stop-color="#5C44C2" />
      <stop offset="0.499384" stop-color="#69ADDA" />
      <stop offset="0.945" stop-color="#FF1684" />
    </linearGradient>
    <linearGradient id="paint33_linear_7_2" x1="-0.699219" y1="17.3023" x2="13.4239" y2="2.04066"
      gradientUnits="userSpaceOnUse">
      <stop stop-color="#5C44C2" />
      <stop offset="0.499384" stop-color="#69ADDA" />
      <stop offset="0.945" stop-color="#FF1684" />
    </linearGradient>
    <linearGradient id="paint34_linear_7_2" x1="-0.699219" y1="17.3023" x2="13.4239" y2="2.04066"
      gradientUnits="userSpaceOnUse">
      <stop stop-color="#5C44C2" />
      <stop offset="0.499384" stop-color="#69ADDA" />
      <stop offset="0.945" stop-color="#FF1684" />
    </linearGradient>
    <linearGradient id="paint35_linear_7_2" x1="-0.699219" y1="17.3023" x2="13.4239" y2="2.04066"
      gradientUnits="userSpaceOnUse">
      <stop stop-color="#5C44C2" />
      <stop offset="0.499384" stop-color="#69ADDA" />
      <stop offset="0.945" stop-color="#FF1684" />
    </linearGradient>
    <linearGradient id="paint36_linear_7_2" x1="-0.699219" y1="17.3023" x2="13.4239" y2="2.04066"
      gradientUnits="userSpaceOnUse">
      <stop stop-color="#5C44C2" />
      <stop offset="0.499384" stop-color="#69ADDA" />
      <stop offset="0.945" stop-color="#FF1684" />
    </linearGradient>
    <linearGradient id="paint37_linear_7_2" x1="-0.699219" y1="17.3023" x2="13.4239" y2="2.04066"
      gradientUnits="userSpaceOnUse">
      <stop stop-color="#5C44C2" />
      <stop offset="0.499384" stop-color="#69ADDA" />
      <stop offset="0.945" stop-color="#FF1684" />
    </linearGradient>
    <linearGradient id="paint38_linear_7_2" x1="-0.699219" y1="17.3023" x2="13.4239" y2="2.04066"
      gradientUnits="userSpaceOnUse">
      <stop stop-color="#5C44C2" />
      <stop offset="0.499384" stop-color="#69ADDA" />
      <stop offset="0.945" stop-color="#FF1684" />
    </linearGradient>
    <linearGradient id="paint39_linear_7_2" x1="-0.699219" y1="17.3023" x2="13.4239" y2="2.04066"
      gradientUnits="userSpaceOnUse">
      <stop stop-color="#5C44C2" />
      <stop offset="0.499384" stop-color="#69ADDA" />
      <stop offset="0.945" stop-color="#FF1684" />
    </linearGradient>
    <linearGradient id="paint40_linear_7_2" x1="-0.699219" y1="17.3023" x2="13.4239" y2="2.04066"
      gradientUnits="userSpaceOnUse">
      <stop stop-color="#5C44C2" />
      <stop offset="0.499384" stop-color="#69ADDA" />
      <stop offset="0.945" stop-color="#FF1684" />
    </linearGradient>
    <linearGradient id="paint41_linear_7_2" x1="-0.699219" y1="17.3023" x2="13.4239" y2="2.04066"
      gradientUnits="userSpaceOnUse">
      <stop stop-color="#5C44C2" />
      <stop offset="0.499384" stop-color="#69ADDA" />
      <stop offset="0.945" stop-color="#FF1684" />
    </linearGradient>
    <linearGradient id="paint42_linear_7_2" x1="-0.699219" y1="17.3023" x2="13.4239" y2="2.04066"
      gradientUnits="userSpaceOnUse">
      <stop stop-color="#5C44C2" />
      <stop offset="0.499384" stop-color="#69ADDA" />
      <stop offset="0.945" stop-color="#FF1684" />
    </linearGradient>
    <linearGradient id="paint43_linear_7_2" x1="-0.699219" y1="17.3023" x2="13.4239" y2="2.04066"
      gradientUnits="userSpaceOnUse">
      <stop stop-color="#5C44C2" />
      <stop offset="0.499384" stop-color="#69ADDA" />
      <stop offset="0.945" stop-color="#FF1684" />
    </linearGradient>
    <linearGradient id="paint44_linear_7_2" x1="-0.699219" y1="17.3023" x2="13.4239" y2="2.04066"
      gradientUnits="userSpaceOnUse">
      <stop stop-color="#5C44C2" />
      <stop offset="0.499384" stop-color="#69ADDA" />
      <stop offset="0.945" stop-color="#FF1684" />
    </linearGradient>
    <linearGradient id="paint45_linear_7_2" x1="-0.699219" y1="17.3023" x2="13.4239" y2="2.04066"
      gradientUnits="userSpaceOnUse">
      <stop stop-color="#5C44C2" />
      <stop offset="0.499384" stop-color="#69ADDA" />
      <stop offset="0.945" stop-color="#FF1684" />
    </linearGradient>
    <linearGradient id="paint46_linear_7_2" x1="-0.699219" y1="17.3023" x2="13.4239" y2="2.04066"
      gradientUnits="userSpaceOnUse">
      <stop stop-color="#5C44C2" />
      <stop offset="0.499384" stop-color="#69ADDA" />
      <stop offset="0.945" stop-color="#FF1684" />
    </linearGradient>
    <linearGradient id="paint47_linear_7_2" x1="-0.699219" y1="17.3023" x2="13.4239" y2="2.04066"
      gradientUnits="userSpaceOnUse">
      <stop stop-color="#5C44C2" />
      <stop offset="0.499384" stop-color="#69ADDA" />
      <stop offset="0.945" stop-color="#FF1684" />
    </linearGradient>
    <linearGradient id="paint48_linear_7_2" x1="-0.699219" y1="17.3023" x2="13.4239" y2="2.04066"
      gradientUnits="userSpaceOnUse">
      <stop stop-color="#5C44C2" />
      <stop offset="0.499384" stop-color="#69ADDA" />
      <stop offset="0.945" stop-color="#FF1684" />
    </linearGradient>
    <linearGradient id="paint49_linear_7_2" x1="8.41406" y1="15.6811" x2="10.9298" y2="-5.08547"
      gradientUnits="userSpaceOnUse">
      <stop stop-color="#5C44C2" />
      <stop offset="0.499384" stop-color="#69ADDA" />
      <stop offset="0.945" stop-color="#FF1684" />
    </linearGradient>
    <linearGradient id="paint50_linear_7_2" x1="8.41406" y1="15.6811" x2="10.9298" y2="-5.08547"
      gradientUnits="userSpaceOnUse">
      <stop stop-color="#5C44C2" />
      <stop offset="0.499384" stop-color="#69ADDA" />
      <stop offset="0.945" stop-color="#FF1684" />
    </linearGradient>
    <linearGradient id="paint51_linear_7_2" x1="8.41406" y1="15.6811" x2="10.9298" y2="-5.08547"
      gradientUnits="userSpaceOnUse">
      <stop stop-color="#5C44C2" />
      <stop offset="0.499384" stop-color="#69ADDA" />
      <stop offset="0.945" stop-color="#FF1684" />
    </linearGradient>
    <linearGradient id="paint52_linear_7_2" x1="8.41406" y1="15.6811" x2="10.9298" y2="-5.08547"
      gradientUnits="userSpaceOnUse">
      <stop stop-color="#5C44C2" />
      <stop offset="0.499384" stop-color="#69ADDA" />
      <stop offset="0.945" stop-color="#FF1684" />
    </linearGradient>
    <linearGradient id="paint53_linear_7_2" x1="8.41406" y1="15.6811" x2="10.9298" y2="-5.08547"
      gradientUnits="userSpaceOnUse">
      <stop stop-color="#5C44C2" />
      <stop offset="0.499384" stop-color="#69ADDA" />
      <stop offset="0.945" stop-color="#FF1684" />
    </linearGradient>
    <linearGradient id="paint54_linear_7_2" x1="8.41406" y1="15.6811" x2="10.9298" y2="-5.08547"
      gradientUnits="userSpaceOnUse">
      <stop stop-color="#5C44C2" />
      <stop offset="0.499384" stop-color="#69ADDA" />
      <stop offset="0.945" stop-color="#FF1684" />
    </linearGradient>
    <linearGradient id="paint55_linear_7_2" x1="8.41406" y1="15.6811" x2="10.9298" y2="-5.08547"
      gradientUnits="userSpaceOnUse">
      <stop stop-color="#5C44C2" />
      <stop offset="0.499384" stop-color="#69ADDA" />
      <stop offset="0.945" stop-color="#FF1684" />
    </linearGradient>
    <linearGradient id="paint56_linear_7_2" x1="8.41406" y1="15.6811" x2="10.9298" y2="-5.08547"
      gradientUnits="userSpaceOnUse">
      <stop stop-color="#5C44C2" />
      <stop offset="0.499384" stop-color="#69ADDA" />
      <stop offset="0.945" stop-color="#FF1684" />
    </linearGradient>
    <linearGradient id="paint57_linear_7_2" x1="8.41406" y1="15.6811" x2="10.9298" y2="-5.08547"
      gradientUnits="userSpaceOnUse">
      <stop stop-color="#5C44C2" />
      <stop offset="0.499384" stop-color="#69ADDA" />
      <stop offset="0.945" stop-color="#FF1684" />
    </linearGradient>
    <linearGradient id="paint58_linear_7_2" x1="8.41406" y1="15.6811" x2="10.9298" y2="-5.08547"
      gradientUnits="userSpaceOnUse">
      <stop stop-color="#5C44C2" />
      <stop offset="0.499384" stop-color="#69ADDA" />
      <stop offset="0.945" stop-color="#FF1684" />
    </linearGradient>
    <linearGradient id="paint59_linear_7_2" x1="73.625" y1="13" x2="73.9121" y2="1.50776"
      gradientUnits="userSpaceOnUse">
      <stop stop-color="#5C44C2" />
      <stop offset="0.499384" stop-color="#69ADDA" />
      <stop offset="1" stop-color="#FF1684" />
    </linearGradient>
    <linearGradient id="paint60_linear_7_2" x1="73.625" y1="13" x2="73.9121" y2="1.50776"
      gradientUnits="userSpaceOnUse">
      <stop stop-color="#5C44C2" />
      <stop offset="0.499384" stop-color="#69ADDA" />
      <stop offset="1" stop-color="#FF1684" />
    </linearGradient>
    <linearGradient id="paint61_linear_7_2" x1="73.625" y1="13" x2="73.9121" y2="1.50776"
      gradientUnits="userSpaceOnUse">
      <stop stop-color="#5C44C2" />
      <stop offset="0.499384" stop-color="#69ADDA" />
      <stop offset="1" stop-color="#FF1684" />
    </linearGradient>
    <linearGradient id="paint62_linear_7_2" x1="73.625" y1="13" x2="73.9121" y2="1.50776"
      gradientUnits="userSpaceOnUse">
      <stop stop-color="#5C44C2" />
      <stop offset="0.499384" stop-color="#69ADDA" />
      <stop offset="1" stop-color="#FF1684" />
    </linearGradient>
    <linearGradient id="paint63_linear_7_2" x1="73.625" y1="13" x2="73.9121" y2="1.50776"
      gradientUnits="userSpaceOnUse">
      <stop stop-color="#5C44C2" />
      <stop offset="0.499384" stop-color="#69ADDA" />
      <stop offset="1" stop-color="#FF1684" />
    </linearGradient>
    <linearGradient id="paint64_linear_7_2" x1="73.625" y1="13" x2="73.9121" y2="1.50776"
      gradientUnits="userSpaceOnUse">
      <stop stop-color="#5C44C2" />
      <stop offset="0.499384" stop-color="#69ADDA" />
      <stop offset="1" stop-color="#FF1684" />
    </linearGradient>
    <linearGradient id="paint65_linear_7_2" x1="73.625" y1="13" x2="73.9121" y2="1.50776"
      gradientUnits="userSpaceOnUse">
      <stop stop-color="#5C44C2" />
      <stop offset="0.499384" stop-color="#69ADDA" />
      <stop offset="1" stop-color="#FF1684" />
    </linearGradient>
    <linearGradient id="paint66_linear_7_2" x1="73.625" y1="13" x2="73.9121" y2="1.50776"
      gradientUnits="userSpaceOnUse">
      <stop stop-color="#5C44C2" />
      <stop offset="0.499384" stop-color="#69ADDA" />
      <stop offset="1" stop-color="#FF1684" />
    </linearGradient>
    <linearGradient id="paint67_linear_7_2" x1="73.625" y1="13" x2="73.9121" y2="1.50776"
      gradientUnits="userSpaceOnUse">
      <stop stop-color="#5C44C2" />
      <stop offset="0.499384" stop-color="#69ADDA" />
      <stop offset="1" stop-color="#FF1684" />
    </linearGradient>
    <linearGradient id="paint68_linear_7_2" x1="73.625" y1="13" x2="73.9121" y2="1.50776"
      gradientUnits="userSpaceOnUse">
      <stop stop-color="#5C44C2" />
      <stop offset="0.499384" stop-color="#69ADDA" />
      <stop offset="1" stop-color="#FF1684" />
    </linearGradient>
  </defs>
</svg>